<?xml version="1.0" encoding="UTF-8" standalone="no"?> <svg id="Layer_1" data-name="Layer 1" xmlns="http://www.w3.org/2000/svg" viewBox="0 0 25 25"><title>Call</title><path id="Call" d="M21.24,25H21A24.44,24.44,0,0,1,7.16,18.74h0l-.87-.87A24.44,24.44,0,0,1,0,4,2.08,2.08,0,0,1,1.33,1.83L5.82.09a1.29,1.29,0,0,1,1.6.59l3.15,5.79A1.3,1.3,0,0,1,10.35,8L7.47,10.83a.29.29,0,0,0,0,.38,29.66,29.66,0,0,0,2.89,3.6,27.16,27.16,0,0,0,3.48,2.77.29.29,0,0,0,.37,0L17,14.65a1.3,1.3,0,0,1,1.54-.23l5.79,3.15a1.3,1.3,0,0,1,.59,1.6l-1.74,4.49A2.08,2.08,0,0,1,21.24,25ZM7.85,18a23.43,23.43,0,0,0,13.26,6,1.08,1.08,0,0,0,1.13-.69L24,18.82a.29.29,0,0,0-.13-.36L18.05,15.3a.29.29,0,0,0-.35.05l-2.83,2.88a1.28,1.28,0,0,1-1.64.17,28.12,28.12,0,0,1-3.62-2.89,30.65,30.65,0,0,1-3-3.75,1.29,1.29,0,0,1,.16-1.65L9.65,7.29a.29.29,0,0,0,.05-.35L6.54,1.15A.29.29,0,0,0,6.18,1L1.69,2.76A1.08,1.08,0,0,0,1,3.89,23.44,23.44,0,0,0,7,17.16Z" fill="#0e1d25"/></svg>