<?xml version="1.0" encoding="UTF-8" standalone="no"?> <svg xmlns="http://www.w3.org/2000/svg" viewBox="0 0 64 64"><defs><style>.cls-1{fill:#35353d;}</style></defs><title>Asset 74</title><g id="Layer_2" data-name="Layer 2"><g id="Layer_1-2" data-name="Layer 1"><path class="cls-1" d="M56,0H8A8,8,0,0,0,0,8V61.33a2.68,2.68,0,0,0,1.55,2.43A2.75,2.75,0,0,0,2.67,64a2.67,2.67,0,0,0,1.73-.64L20.07,49.93A8,8,0,0,1,25.28,48H56a8,8,0,0,0,8-8V8A8,8,0,0,0,56,0Zm2.67,40A2.68,2.68,0,0,1,56,42.67H25.28a13.36,13.36,0,0,0-8.68,3.21L5.33,55.54V8A2.68,2.68,0,0,1,8,5.33H56A2.68,2.68,0,0,1,58.67,8Z"/><path class="cls-1" d="M45.33,15.69H18.67a2.67,2.67,0,1,0,0,5.33H45.33a2.67,2.67,0,1,0,0-5.33Z"/><path class="cls-1" d="M45.33,26.36H18.67a2.67,2.67,0,1,0,0,5.33H45.33a2.67,2.67,0,1,0,0-5.33Z"/></g></g></svg>