<svg width="16" height="16" viewBox="0 0 16 16" fill="none" xmlns="http://www.w3.org/2000/svg">
<path d="M2.74414 12.6866C2.05378 12.6866 1.49414 12.127 1.49414 11.4366V4.56348C1.49414 3.87312 2.05378 3.31348 2.74414 3.31348H9.75069C10.441 3.31348 11.0007 3.87312 11.0007 4.56348V11.4366C11.0007 12.127 10.441 12.6866 9.75069 12.6866H2.74414Z" stroke="#727272" stroke-linecap="round" stroke-linejoin="round"/>
<path d="M11.3257 9.56328C11.1254 9.45359 11.001 9.24347 11.001 9.01515V6.98597C11.001 6.75765 11.1254 6.5475 11.3257 6.4378L13.5804 5.20274C13.9969 4.97458 14.5056 5.27598 14.5056 5.75089V10.2502C14.5056 10.7251 13.9969 11.0265 13.5804 10.7983L11.3257 9.56328Z" stroke="#727272" stroke-linecap="round" stroke-linejoin="round"/>
<path d="M6.73097 10.0147H4.1499V7.43359" stroke="#727272" stroke-linecap="round" stroke-linejoin="round"/>
<path d="M8.30195 5.85107L4.2251 9.92794" stroke="#727272" stroke-linecap="round" stroke-linejoin="round"/>
</svg>
