<svg width="16" height="16" viewBox="0 0 16 16" fill="none" xmlns="http://www.w3.org/2000/svg">
<path d="M3.02825 7.46456L3.47884 7.91556C3.71313 8.14977 4.03084 8.28134 4.36212 8.28134C4.6934 8.28134 5.01112 8.14977 5.2454 7.91556L5.90796 7.25301C5.96601 7.195 6.01206 7.12612 6.04348 7.05031C6.0749 6.9745 6.09107 6.89324 6.09107 6.81117C6.09107 6.72911 6.0749 6.64785 6.04348 6.57204C6.01206 6.49622 5.96601 6.42735 5.90796 6.36934L4.6199 5.08088C4.55683 5.01726 4.4808 4.96794 4.39699 4.93629C4.31317 4.90463 4.22353 4.89138 4.13414 4.89742C4.04475 4.90346 3.9577 4.92866 3.87891 4.97131C3.80012 5.01396 3.73143 5.07306 3.67749 5.1446C2.32779 6.97692 3.14569 8.90668 4.80439 10.5658C6.46309 12.2248 8.39414 13.0419 10.2277 11.6922C10.2991 11.6381 10.358 11.5693 10.4004 11.4904C10.4429 11.4115 10.4678 11.3244 10.4736 11.235C10.4794 11.1456 10.4659 11.056 10.4341 10.9723C10.4022 10.8886 10.3527 10.8127 10.289 10.7498L9.00048 9.46137C8.94247 9.40333 8.87359 9.35728 8.79778 9.32586C8.72196 9.29445 8.6407 9.27828 8.55863 9.27828C8.47657 9.27828 8.39531 9.29445 8.31949 9.32586C8.24368 9.35728 8.1748 9.40333 8.11679 9.46137L7.45422 10.1239C7.33819 10.2399 7.24614 10.3777 7.18335 10.5293C7.12055 10.6808 7.08823 10.8433 7.08823 11.0074C7.08823 11.1715 7.12055 11.3339 7.18335 11.4855C7.24614 11.6371 7.33819 11.7748 7.45422 11.8909L7.91231 12.3464" stroke="#727272" stroke-linecap="round" stroke-linejoin="round"/>
<path d="M8.31006 7.06025L12.3704 3" stroke="#727272" stroke-linecap="round" stroke-linejoin="round"/>
<path d="M10.8087 7.06014H8.31006V4.56152" stroke="#727272" stroke-linecap="round" stroke-linejoin="round"/>
</svg>
