<svg width="24" height="24" viewBox="0 0 24 24" fill="none" xmlns="http://www.w3.org/2000/svg">
<g clip-path="url(#clip0_4792_74815)">
<path d="M14.1094 16.2188H13.4062C13.0333 16.2188 12.6756 16.0706 12.4119 15.8069C12.1482 15.5431 12 15.1855 12 14.8125V11.2969C12 11.1104 11.9259 10.9316 11.7941 10.7997C11.6622 10.6678 11.4834 10.5938 11.2969 10.5938H10.5938" stroke="black" stroke-width="1.5" stroke-linecap="round" stroke-linejoin="round"/>
<path d="M11.6484 7.78125C11.5552 7.78125 11.4658 7.74421 11.3998 7.67828C11.3339 7.61235 11.2969 7.52293 11.2969 7.42969C11.2969 7.33645 11.3339 7.24703 11.3998 7.1811C11.4658 7.11516 11.5552 7.07812 11.6484 7.07812" stroke="black" stroke-width="1.5"/>
<path d="M11.6484 7.78125C11.7417 7.78125 11.8311 7.74421 11.897 7.67828C11.963 7.61235 12 7.52293 12 7.42969C12 7.33645 11.963 7.24703 11.897 7.1811C11.8311 7.11516 11.7417 7.07812 11.6484 7.07812" stroke="black" stroke-width="1.5"/>
<path d="M12 22.5469C17.8247 22.5469 22.5469 17.8247 22.5469 12C22.5469 6.17531 17.8247 1.45312 12 1.45312C6.17531 1.45312 1.45312 6.17531 1.45312 12C1.45312 17.8247 6.17531 22.5469 12 22.5469Z" stroke="black" stroke-width="1.5" stroke-linecap="round" stroke-linejoin="round"/>
</g>
<defs>
<clipPath id="clip0_4792_74815">
<rect width="24" height="24" fill="white"/>
</clipPath>
</defs>
</svg>