    <svg width="16" height="16" viewBox="0 0 16 16" fill="none" xmlns="http://www.w3.org/2000/svg">
<path d="M3.02825 7.46456L3.47883 7.91556C3.71311 8.14977 4.03082 8.28134 4.3621 8.28134C4.69337 8.28134 5.01108 8.14977 5.24536 7.91556L5.90791 7.25301C5.96595 7.195 6.012 7.12612 6.04342 7.05031C6.07483 6.9745 6.091 6.89324 6.091 6.81117C6.091 6.72911 6.07483 6.64785 6.04342 6.57204C6.012 6.49622 5.96595 6.42735 5.90791 6.36934L4.61987 5.08088C4.55679 5.01726 4.48077 4.96794 4.39696 4.93629C4.31314 4.90463 4.2235 4.89138 4.13411 4.89742C4.04473 4.90346 3.95768 4.92866 3.87889 4.97131C3.8001 5.01396 3.73141 5.07306 3.67747 5.1446C2.32781 6.97692 3.14569 8.90668 4.80435 10.5658C6.46302 12.2248 8.39403 13.0419 10.2276 11.6922C10.299 11.6381 10.3579 11.5693 10.4003 11.4904C10.4427 11.4115 10.4677 11.3244 10.4735 11.235C10.4793 11.1456 10.4658 11.056 10.4339 10.9723C10.4021 10.8886 10.3526 10.8127 10.2888 10.7498L9.00036 9.46137C8.94235 9.40333 8.87347 9.35728 8.79766 9.32586C8.72185 9.29445 8.64059 9.27828 8.55852 9.27828C8.47646 9.27828 8.3952 9.29445 8.31938 9.32586C8.24357 9.35728 8.17469 9.40333 8.11668 9.46137L7.45413 10.1239C7.3381 10.2399 7.24606 10.3777 7.18326 10.5293C7.12047 10.6808 7.08814 10.8433 7.08814 11.0074C7.08814 11.1715 7.12047 11.3339 7.18326 11.4855C7.24606 11.6371 7.3381 11.7748 7.45413 11.8909L7.91221 12.3464" stroke="#727272" stroke-linecap="round" stroke-linejoin="round"/>
<path d="M12.3699 3.62465L9.87132 6.12327L6.74805 3" stroke="#727272" stroke-linecap="round" stroke-linejoin="round"/>
<path d="M6.74805 4.87396V3H8.62201" stroke="#727272" stroke-linecap="round" stroke-linejoin="round"/>
</svg>