<svg width="16" height="16" viewBox="0 0 16 16" fill="none" xmlns="http://www.w3.org/2000/svg">
<path d="M11.3257 9.56328C11.1254 9.45359 11.001 9.24347 11.001 9.01515V6.98597C11.001 6.75765 11.1254 6.5475 11.3257 6.4378L13.5804 5.20274C13.9969 4.97458 14.5056 5.27598 14.5056 5.75089V10.2502C14.5056 10.7251 13.9969 11.0265 13.5804 10.7983L11.3257 9.56328Z" stroke="#727272" stroke-linecap="round" stroke-linejoin="round"/>
<path d="M9.10683 7.30799L6.5409 9.87391L3.3335 6.6665" stroke="#727272" stroke-linecap="round" stroke-linejoin="round"/>
<path d="M3.3335 8.59095V6.6665H5.25794" stroke="#727272" stroke-linecap="round" stroke-linejoin="round"/>
<path d="M2.5835 12.7062C1.89314 12.7062 1.3335 12.1466 1.3335 11.4562V4.58301C1.3335 3.89265 1.89314 3.33301 2.5835 3.33301H9.59005C10.2804 3.33301 10.84 3.89265 10.84 4.58301V11.4562C10.84 12.1466 10.2804 12.7062 9.59005 12.7062H2.5835Z" stroke="#727272" stroke-linecap="round" stroke-linejoin="round"/>
</svg>
