<?xml version="1.0" encoding="iso-8859-1"?>
<!-- Generator: Adobe Illustrator 21.1.0, SVG Export Plug-In . SVG Version: 6.00 Build 0)  -->
<svg version="1.1" id="Layer_1_1_" xmlns="http://www.w3.org/2000/svg" xmlns:xlink="http://www.w3.org/1999/xlink" x="0px" y="0px"
	 viewBox="0 0 16 16" style="enable-background:new 0 0 16 16;" xml:space="preserve">
<path d="M8,11c1.657,0,3-1.343,3-3V3c0-1.657-1.343-3-3-3S5,1.343,5,3v5C5,9.657,6.343,11,8,11z"/>
<path d="M13,8V6h-1l0,1.844c0,1.92-1.282,3.688-3.164,4.071C6.266,12.438,4,10.479,4,8V6H3v2c0,2.414,1.721,4.434,4,4.899V15H5v1h6
	v-1H9v-2.101C11.279,12.434,13,10.414,13,8z"/>
</svg>
