<?xml version="1.0" encoding="UTF-8"?>
<svg width="24px" height="24px" viewBox="0 0 24 24" version="1.1" xmlns="http://www.w3.org/2000/svg" xmlns:xlink="http://www.w3.org/1999/xlink">
    <title>Icons/24/Reply@2x</title>
    <g id="Icons/24/Reply" stroke="none" stroke-width="1" fill="none" fill-rule="evenodd" stroke-linecap="round" stroke-linejoin="round">
        <g id="Group" transform="translate(12, 12.5) scale(-1, 1) translate(-12, -12.5)translate(2, 4)" stroke="#000000" stroke-width="1.5">
            <path d="M7.70507884,1.42202898 C7.70440368,0.83670195 7.35995942,0.311451734 6.83684959,0.0980481383 C6.31373976,-0.115355457 5.71857671,0.026580267 5.33664177,0.455820822 L0.362013006,6.06893973 C-0.120671002,6.61418455 -0.120671002,7.45421297 0.362013006,7.9994578 L5.33390896,13.6125767 C5.7158439,14.0418173 6.31100695,14.183753 6.83411678,13.9703494 C7.35722661,13.7569458 7.70167087,13.2316956 7.70234602,12.6463685 L7.70234602,9.88157054 L13.16797,9.88157054 C16.941196,9.88157054 20,13.0686 20,17 L20,11.3052564 C20,7.3738564 16.941196,4.18682698 13.16797,4.18682698 L7.70234602,4.18682698 L7.70507884,1.42202898 Z" id="Path"></path>
        </g>
    </g>
</svg>